<?xml version="1.0" encoding="UTF-8"?>
<svg version="1.1" xmlns="http://www.w3.org/2000/svg" width="204" height="333">
<path d="M0 0 C0 109.89 0 219.78 0 333 C-11.24921683 330.75015663 -11.24921683 330.75015663 -16.859375 328.91552734 C-17.47411462 328.71625546 -18.08885424 328.51698359 -18.72222233 328.31167316 C-20.73324707 327.65837761 -22.74157981 326.99719215 -24.75 326.3359375 C-26.18996889 325.86656629 -27.63011313 325.39773274 -29.07041931 324.92939758 C-32.12683682 323.93447864 -35.18212774 322.93620283 -38.23654175 321.93515015 C-43.05627955 320.3556628 -47.87855881 318.78404431 -52.70141602 317.21411133 C-54.32624941 316.68513869 -55.95108156 316.15616225 -57.57591248 315.62718201 C-58.37890715 315.3657736 -59.18190182 315.1043652 -60.00922966 314.83503532 C-62.44192519 314.04279975 -64.87438317 313.24983875 -67.30677795 312.4566803 C-80.50255234 308.15469709 -93.71452221 303.90519051 -106.9375 299.6875 C-110.86076958 298.43518544 -114.78391844 297.18249306 -118.70703125 295.9296875 C-120.16523285 295.46413704 -120.16523285 295.46413704 -121.65289307 294.98918152 C-129.75485767 292.40113401 -137.85257127 289.79994049 -145.94921875 287.1953125 C-146.58306677 286.99142977 -147.21691479 286.78754704 -147.86997032 286.57748604 C-154.6571206 284.39428546 -161.44386124 282.20981543 -168.23022461 280.02416992 C-170.46855898 279.30378587 -172.70692074 278.58348695 -174.9453125 277.86328125 C-176.00349686 277.5225206 -177.06168121 277.18175995 -178.15193176 276.83067322 C-185.52121527 274.46211933 -192.90698195 272.15339763 -200.31201172 269.89916992 C-203 269 -203 269 -204 268 C-204.09780042 265.38237266 -204.12994511 262.79114693 -204.12025452 260.17308044 C-204.12110894 259.34326489 -204.12196337 258.51344934 -204.12284368 257.65848786 C-204.12450103 254.85620681 -204.11897297 252.05398459 -204.11352539 249.25170898 C-204.11324355 247.25158693 -204.1134012 245.25146477 -204.1139679 243.25134277 C-204.11425598 237.80321965 -204.10835745 232.35511834 -204.10139394 226.9070003 C-204.09516226 221.22015158 -204.09455675 215.53330242 -204.09336853 209.84645081 C-204.09025466 199.06940041 -204.08204053 188.2923601 -204.07201904 177.51531416 C-204.06085962 165.24950393 -204.05534789 152.98369322 -204.05032361 140.71787918 C-204.03985796 115.47858051 -204.02225745 90.23929082 -204 65 C-193.47180186 60.72988372 -193.47180186 60.72988372 -188.84057617 59.25512695 C-187.94916428 58.96926224 -187.05775238 58.68339752 -186.139328 58.38887024 C-185.20002945 58.09167587 -184.2607309 57.79448151 -183.29296875 57.48828125 C-181.76697807 57.00049446 -181.76697807 57.00049446 -180.2101593 56.50285339 C-176.87032744 55.43606476 -173.52891451 54.3743199 -170.1875 53.3125 C-167.81758534 52.55637498 -165.4477959 51.79985737 -163.078125 51.04296875 C-158.15852351 49.4719505 -153.23838929 47.90261727 -148.31787109 46.33447266 C-138.12866711 43.08582625 -127.94608231 39.81658922 -117.76342773 36.54748535 C-114.48634418 35.49561679 -111.20903424 34.44445675 -107.93164062 33.39355469 C-96.6237196 29.76764694 -85.31693935 26.13822528 -74.01171875 22.50390625 C-34.09409766 9.67366581 -34.09409766 9.67366581 -17.94277954 4.58908081 C-16.58293905 4.16057963 -15.22352978 3.73070713 -13.86459351 3.29934692 C-12.05429944 2.72526573 -10.24205356 2.15734977 -8.4296875 1.58984375 C-6.94831299 1.12372681 -6.94831299 1.12372681 -5.43701172 0.64819336 C-3 0 -3 0 0 0 Z M-191 100 C-191 111.55 -191 123.1 -191 135 C-167.9 135 -144.8 135 -121 135 C-121 166.35 -121 197.7 -121 230 C-108.46 230 -95.92 230 -83 230 C-83 198.65 -83 167.3 -83 135 C-59.57 135 -36.14 135 -12 135 C-12 123.45 -12 111.9 -12 100 C-71.07 100 -130.14 100 -191 100 Z " fill="#FFFFFF" transform="translate(204,0)"/>
</svg>
